<svg width="24" height="24" viewBox="0 0 24 24" fill="none" xmlns="http://www.w3.org/2000/svg">
<path d="M13.5793 1.50651C12.5711 1.07335 11.4293 1.07335 10.4212 1.50651C9.74736 1.79601 9.23355 2.32845 8.75418 2.9623C8.28057 3.58855 7.75411 4.43529 7.10137 5.48513L3.55957 11.1815C2.8383 12.3415 2.26006 13.2715 1.87733 14.0348C1.49317 14.8009 1.22353 15.5517 1.28714 16.3271C1.38131 17.4751 1.96581 18.5268 2.891 19.2129C3.51586 19.6763 4.29585 19.8438 5.1493 19.9221C5.99958 20.0001 7.09467 20.0001 8.46062 20H15.5398C16.9058 20.0001 18.0008 20.0001 18.8511 19.9221C19.7046 19.8438 20.4846 19.6763 21.1094 19.2129C22.0346 18.5268 22.6191 17.4751 22.7133 16.3271C22.7769 15.5517 22.5073 14.8009 22.1231 14.0348C21.7404 13.2715 21.1621 12.3416 20.4409 11.1816L16.8991 5.48521C16.2463 4.43533 15.7199 3.58856 15.2462 2.9623C14.7669 2.32845 14.2531 1.79601 13.5793 1.50651ZM13.0002 8V11C13.0002 11.5523 12.5525 12 12.0002 12C11.4479 12 11.0002 11.5523 11.0002 11V8C11.0002 7.44772 11.4479 7 12.0002 7C12.5525 7 13.0002 7.44772 13.0002 8ZM12.0018 13.3501C12.6369 13.3501 13.1518 13.865 13.1518 14.5001C13.1518 15.1353 12.6369 15.6501 12.0018 15.6501C11.3666 15.6501 10.8518 15.1352 10.8518 14.5001C10.8518 13.865 11.3666 13.3501 12.0018 13.3501Z" fill="currentColor"/>
</svg>
